<?xml version="1.0" encoding="UTF-8" standalone="no"?>
<!-- Created with Inkscape (http://www.inkscape.org/) -->

<svg
   xmlns:dc="http://purl.org/dc/elements/1.1/"
   xmlns:cc="http://creativecommons.org/ns#"
   xmlns:rdf="http://www.w3.org/1999/02/22-rdf-syntax-ns#"
   xmlns:svg="http://www.w3.org/2000/svg"
   xmlns="http://www.w3.org/2000/svg"
   xmlns:sodipodi="http://sodipodi.sourceforge.net/DTD/sodipodi-0.dtd"
   xmlns:inkscape="http://www.inkscape.org/namespaces/inkscape"
   width="48"
   height="48"
   id="svg2"
   version="1.1"
   inkscape:version="0.47 r22583"
   inkscape:export-filename="leap.png"
   inkscape:export-xdpi="240"
   inkscape:export-ydpi="240"
   sodipodi:docname="leap.svg">
  <defs
     id="defs4">
    <inkscape:perspective
       sodipodi:type="inkscape:persp3d"
       inkscape:vp_x="0 : 526.18109 : 1"
       inkscape:vp_y="0 : 1000 : 0"
       inkscape:vp_z="744.09448 : 526.18109 : 1"
       inkscape:persp3d-origin="372.04724 : 350.78739 : 1"
       id="perspective10" />
    <inkscape:perspective
       id="perspective2828"
       inkscape:persp3d-origin="0.5 : 0.33333333 : 1"
       inkscape:vp_z="1 : 0.5 : 1"
       inkscape:vp_y="0 : 1000 : 0"
       inkscape:vp_x="0 : 0.5 : 1"
       sodipodi:type="inkscape:persp3d" />
    <inkscape:perspective
       id="perspective3629"
       inkscape:persp3d-origin="0.5 : 0.33333333 : 1"
       inkscape:vp_z="1 : 0.5 : 1"
       inkscape:vp_y="0 : 1000 : 0"
       inkscape:vp_x="0 : 0.5 : 1"
       sodipodi:type="inkscape:persp3d" />
    <inkscape:perspective
       id="perspective3658"
       inkscape:persp3d-origin="0.5 : 0.33333333 : 1"
       inkscape:vp_z="1 : 0.5 : 1"
       inkscape:vp_y="0 : 1000 : 0"
       inkscape:vp_x="0 : 0.5 : 1"
       sodipodi:type="inkscape:persp3d" />
  </defs>
  <sodipodi:namedview
     id="base"
     pagecolor="#ffffff"
     bordercolor="#666666"
     borderopacity="1.0"
     inkscape:pageopacity="0.0"
     inkscape:pageshadow="2"
     inkscape:zoom="3.959798"
     inkscape:cx="84.195307"
     inkscape:cy="8.1202342"
     inkscape:document-units="px"
     inkscape:current-layer="layer1"
     showgrid="false"
     inkscape:window-width="1920"
     inkscape:window-height="1008"
     inkscape:window-x="0"
     inkscape:window-y="24"
     inkscape:window-maximized="1" />
  <metadata
     id="metadata7">
    <rdf:RDF>
      <cc:Work
         rdf:about="">
        <dc:format>image/svg+xml</dc:format>
        <dc:type
           rdf:resource="http://purl.org/dc/dcmitype/StillImage" />
        <dc:title></dc:title>
      </cc:Work>
    </rdf:RDF>
  </metadata>
  <g
     inkscape:label="layer"
     inkscape:groupmode="layer"
     id="layer1"
     transform="translate(0,-1004.3622)"
     style="display:inline">
    <g
       transform="scale(0.99908993,1.0009109)"
       style="font-size:52.73546981999999872px;font-style:normal;font-variant:normal;font-weight:bold;font-stretch:normal;fill:#333333;fill-opacity:1;stroke:none;font-family:Bitstream Charter;-inkscape-font-specification:Courier New Bold"
       id="text2816-4">
      <path
         d="m 15.874274,1018.7075 0,20.6513 11.381386,0 0,-4.9955 c -2.5e-5,-1.2703 0.240306,-2.1715 0.720993,-2.7037 0.497802,-0.5493 1.141545,-0.824 1.93123,-0.824 0.772464,0 1.39904,0.2747 1.879731,0.824 0.497799,0.5322 0.746713,1.4334 0.746743,2.7037 l 0,10.2742 -25.0029988,0 c -1.2703246,0 -2.1801479,-0.2404 -2.7294726,-0.721 -0.5321633,-0.4979 -0.7982437,-1.1416 -0.798242,-1.9313 -1.7e-6,-0.7725 0.2660787,-1.399 0.798242,-1.8797 0.5493247,-0.4978 1.459148,-0.7467 2.7294726,-0.7467 l 3.0642188,0 0,-20.6513 -3.0642188,0 c -1.2703246,0 -2.1801479,-0.2403 -2.7294726,-0.721 -0.5321633,-0.4978 -0.7982437,-1.1416 -0.798242,-1.9313 -1.7e-6,-0.7896 0.2660787,-1.4248 0.798242,-1.9054 0.5493247,-0.4978 1.459148,-0.7468 2.7294726,-0.7468 l 11.4328848,0.026 c 1.270303,0 2.171543,0.2403 2.703723,0.721 0.549308,0.4806 0.823972,1.1158 0.823992,1.9054 -2e-5,0.7897 -0.274684,1.4335 -0.823992,1.9313 -0.53218,0.4807 -1.43342,0.721 -2.703723,0.721 l -3.089969,0"
         style="fill:#333333;font-family:Courier New;-inkscape-font-specification:Courier New Bold"
         id="path2824" />
      <path
         d="m 42.91042,1016.493 -1.467735,15.9133 c -0.06868,0.824 -0.343348,1.4678 -0.823992,1.9313 -0.480679,0.4463 -1.081506,0.6695 -1.802482,0.6694 -0.721008,10e-5 -1.321834,-0.2231 -1.802482,-0.6694 -0.480675,-0.4635 -0.755339,-1.1073 -0.823992,-1.9313 l -1.493485,-15.9133 c -0.06868,-0.8068 -0.10301,-1.339 -0.102998,-1.5965 -1.2e-5,-1.339 0.4034,-2.4119 1.210237,-3.2187 0.806812,-0.824 1.811051,-1.236 3.01272,-1.236 1.184471,0 2.180127,0.412 2.98697,1.236 0.823972,0.824 1.235968,1.8626 1.235988,3.1157 -2e-5,0.2575 -0.04294,0.824 -0.128749,1.6995 m -0.849742,26.2132 c -1.8e-5,0.7553 -0.283265,1.3991 -0.849741,1.9313 -0.566512,0.5149 -1.347587,0.7724 -2.343226,0.7724 -0.995672,0 -1.776747,-0.2575 -2.343227,-0.7724 -0.566507,-0.5322 -0.849754,-1.176 -0.849741,-1.9313 -1.3e-5,-0.7381 0.274651,-1.3647 0.823991,-1.8797 0.566481,-0.5322 1.356139,-0.7982 2.368977,-0.7983 1.012806,10e-5 1.793881,0.2575 2.343226,0.7725 0.566476,0.515 0.849723,1.1502 0.849741,1.9055"
         style="fill:#333333;font-family:Courier New;-inkscape-font-specification:Courier New Bold"
         id="path2826" />
    </g>
  </g>
</svg>
